<svg xmlns="http://www.w3.org/2000/svg" version="1.1" xmlns:xlink="http://www.w3.org/1999/xlink" xmlns:svgjs="http://svgjs.dev/svgjs" width="1500" height="1500" viewBox="0 0 1500 1500"><rect width="1500" height="1500" fill="#000000"></rect><g transform="matrix(0.6666666666666666,0,0,0.6666666666666666,250.0006562499999,187.66666666666674)"><svg viewBox="0 0 320 360" data-background-color="#d498ca" preserveAspectRatio="xMidYMid meet" height="1687" width="1500" xmlns="http://www.w3.org/2000/svg" xmlns:xlink="http://www.w3.org/1999/xlink"><g id="tight-bounds" transform="matrix(1,0,0,1,-0.00020999999998139174,0)"><svg viewBox="0 0 320 360" height="360" width="320"><g><svg></svg></g><g><svg viewBox="0 0 320 360" height="360" width="320"><g><path transform="translate(-17.77778,2.22222) scale(3.55556,3.55556)" d="M95 52c0-12.871-5.692-24.431-14.682-32.318-7.887-8.99-19.447-14.682-32.318-14.682-23.71 0-43 19.29-43 43 0 12.868 5.69 24.426 14.677 32.313 7.887 8.993 19.449 14.687 32.323 14.687 0.084 0 0.166-0.006 0.25-0.006 0.084 0 0.166 0.006 0.25 0.006 23.472 0 42.5-19.028 42.5-42.5 0-0.084-0.006-0.166-0.006-0.25 0-0.084 0.006-0.166 0.006-0.25zM21.828 73.371c-4.245-5.978-6.77-13.259-6.822-21.121 0.135-20.511 16.732-37.109 37.244-37.244 7.862 0.052 15.144 2.577 21.121 6.822 6.853 6.645 11.129 15.93 11.129 26.172 0 20.126-16.374 36.5-36.5 36.5-10.242 0-19.527-4.276-26.172-11.129zM6 48c0-23.159 18.841-42 42-42 9.858 0 18.926 3.422 26.1 9.13-6.463-3.888-14.024-6.13-22.1-6.13-23.71 0-43 19.29-43 43 0 8.074 2.241 15.633 6.127 22.095-5.706-7.172-9.127-16.239-9.127-26.095zM52 89c-10.08 0-19.227-4.055-25.905-10.615 6.174 4.469 13.743 7.115 21.905 7.115 20.678 0 37.5-16.822 37.5-37.5 0-8.162-2.646-15.731-7.115-21.905 6.56 6.678 10.615 15.825 10.615 25.905 0 20.402-16.598 37-37 37z" fill="#ffffff" fill-rule="nonzero" stroke="none" stroke-width="1" stroke-linecap="butt" stroke-linejoin="miter" stroke-miterlimit="10" stroke-dasharray="" stroke-dashoffset="0" font-family="none" font-weight="none" font-size="none" text-anchor="none" style="mix-blend-mode: normal" data-fill-palette-color="tertiary"></path></g><g transform="matrix(1,0,0,1,64,116.69961638615626)"><svg viewBox="0 0 192 126.60076722768746" height="126.60076722768746" width="192"><g><svg viewBox="0 0 192 126.60076722768746" height="126.60076722768746" width="192"><g transform="matrix(1,0,0,1,0,64.7258209531546)"><svg viewBox="0 0 192 61.87494627453286" height="61.87494627453286" width="192"><g id="textblocktransform"><svg viewBox="0 0 192 61.87494627453286" height="61.87494627453286" width="192" id="textblock"><g><svg viewBox="0 0 192 43.769081731912564" height="43.769081731912564" width="192"><g transform="matrix(1,0,0,1,0,0)"><svg width="192" viewBox="0.18156000000000105 -19.174800000000005 292.01564093247987 66.56905" height="43.769081731912564" data-palette-color="#f1008d"><path d="M13.433 2.339l-3.951 14.709-9.3-2.498 9.059-33.725 9.3 2.499-3.956 14.727 12.323 3.311 3.956-14.728 9.291 2.496-9.059 33.724-9.291-2.496 3.951-14.708zM70.543 15.957v0c-0.268 1.428-0.709 2.733-1.323 3.914-0.616 1.187-1.36 2.248-2.234 3.183-0.875 0.942-1.871 1.749-2.987 2.421-1.108 0.667-2.288 1.189-3.539 1.566-1.244 0.377-2.544 0.602-3.9 0.673-1.351 0.079-2.711-0.009-4.081-0.266v0c-1.363-0.255-2.66-0.664-3.891-1.227-1.225-0.555-2.35-1.234-3.372-2.036-1.03-0.803-1.94-1.717-2.733-2.74-0.797-1.031-1.433-2.144-1.908-3.338-0.476-1.188-0.786-2.45-0.928-3.786-0.143-1.336-0.083-2.708 0.181-4.117v0c0.265-1.415 0.706-2.72 1.323-3.913 0.617-1.193 1.362-2.258 2.236-3.193 0.875-0.942 1.871-1.749 2.987-2.422 1.108-0.667 2.288-1.189 3.538-1.565 1.244-0.377 2.538-0.603 3.881-0.677 1.351-0.079 2.708 0.009 4.071 0.264v0c1.37 0.257 2.67 0.666 3.901 1.229 1.239 0.558 2.369 1.237 3.392 2.04 1.03 0.803 1.94 1.717 2.733 2.739 0.797 1.031 1.433 2.144 1.907 3.339 0.476 1.188 0.786 2.45 0.929 3.786 0.143 1.336 0.082 2.711-0.183 4.126zM62.346 14.422v0c0.144-0.767 0.253-1.584 0.327-2.452 0.073-0.861 0.082-1.721 0.025-2.579-0.056-0.858-0.191-1.697-0.403-2.518-0.218-0.828-0.536-1.572-0.955-2.234-0.419-0.662-0.96-1.231-1.623-1.708-0.67-0.478-1.49-0.808-2.46-0.989v0c-0.917-0.172-1.766-0.151-2.545 0.062-0.787 0.219-1.5 0.567-2.139 1.044-0.64 0.484-1.211 1.072-1.714 1.765-0.497 0.7-0.934 1.436-1.309 2.206-0.376 0.777-0.692 1.576-0.947 2.397-0.248 0.815-0.44 1.589-0.578 2.323v0c-0.136 0.727-0.236 1.516-0.3 2.365-0.059 0.857-0.054 1.719 0.013 2.587 0.068 0.867 0.209 1.711 0.422 2.531 0.219 0.821 0.54 1.573 0.961 2.256 0.423 0.676 0.961 1.259 1.616 1.747 0.649 0.481 1.432 0.808 2.35 0.979v0c0.957 0.179 1.831 0.167 2.621-0.038 0.798-0.203 1.516-0.544 2.155-1.02 0.638-0.471 1.203-1.046 1.697-1.727 0.487-0.682 0.916-1.415 1.287-2.201 0.371-0.785 0.678-1.592 0.922-2.422 0.242-0.823 0.435-1.614 0.577-2.374zM119.007 18.762v0c-0.2 1.91-0.634 3.878-1.302 5.906-0.662 2.029-1.503 3.985-2.525 5.869-1.015 1.885-2.188 3.642-3.518 5.272-1.324 1.638-2.754 3.026-4.288 4.166v0l-2.888-1.991c0.558-0.786 1.085-1.683 1.579-2.691 0.494-1.001 0.964-2.064 1.41-3.19 0.439-1.12 0.842-2.281 1.209-3.483 0.373-1.194 0.706-2.389 0.999-3.586 0.299-1.195 0.549-2.359 0.748-3.491 0.199-1.132 0.351-2.199 0.456-3.2v0c0.059-0.564 0.106-1.175 0.142-1.835 0.036-0.667 0.039-1.333 0.008-2-0.037-0.668-0.13-1.314-0.279-1.939-0.142-0.625-0.371-1.195-0.686-1.711-0.309-0.508-0.72-0.933-1.234-1.276-0.508-0.335-1.14-0.542-1.895-0.62v0c-0.736-0.077-1.386 0.053-1.951 0.388-0.565 0.343-1.066 0.807-1.503 1.391-0.437 0.591-0.803 1.27-1.099 2.037-0.301 0.759-0.549 1.531-0.745 2.315-0.197 0.79-0.353 1.545-0.468 2.264-0.115 0.719-0.199 1.326-0.252 1.823v0l-1.462 13.964-8.126-0.851 1.36-12.979c0.059-0.564 0.137-1.242 0.233-2.037 0.103-0.794 0.17-1.628 0.202-2.502 0.037-0.868 0.025-1.74-0.037-2.619-0.069-0.879-0.23-1.673-0.485-2.383-0.261-0.711-0.651-1.308-1.17-1.792-0.519-0.483-1.203-0.77-2.051-0.858v0c-0.723-0.076-1.35 0.06-1.883 0.406-0.533 0.353-0.999 0.83-1.397 1.432-0.398 0.602-0.732 1.291-1 2.067-0.262 0.777-0.482 1.558-0.658 2.345-0.17 0.787-0.302 1.537-0.397 2.25-0.088 0.715-0.157 1.304-0.205 1.769v0l-1.463 13.963-8.175-0.856 2.918-27.858 3.133 0.329 2.314 6.798c0.912-2.177 2.16-3.819 3.744-4.927 1.591-1.114 3.59-1.544 5.997-1.292v0c2.175 0.228 3.931 0.868 5.269 1.919 1.331 1.051 2.302 2.631 2.912 4.739v0c0.556-0.833 1.157-1.575 1.801-2.224 0.65-0.642 1.35-1.179 2.1-1.611 0.755-0.424 1.571-0.724 2.447-0.9 0.883-0.176 1.839-0.21 2.866-0.102v0c1.896 0.199 3.481 0.68 4.755 1.444 1.281 0.758 2.289 1.728 3.024 2.91 0.741 1.184 1.225 2.548 1.451 4.094 0.228 1.539 0.249 3.187 0.065 4.944zM130.943 21.974v0c0.995 0.249 1.994 0.448 2.998 0.597 0.997 0.156 2.005 0.245 3.024 0.268v0c1.066 0.024 2.058-0.054 2.976-0.234 0.918-0.186 1.718-0.508 2.403-0.967 0.677-0.465 1.218-1.09 1.622-1.874 0.411-0.778 0.629-1.76 0.656-2.946v0c0.021-0.953-0.089-1.826-0.332-2.618-0.242-0.799-0.61-1.487-1.104-2.065-0.501-0.578-1.117-1.032-1.85-1.362-0.739-0.337-1.602-0.516-2.589-0.538v0c-0.92-0.021-1.75 0.131-2.491 0.455-0.747 0.323-1.404 0.765-1.97 1.326-0.573 0.561-1.064 1.217-1.474 1.968-0.417 0.751-0.764 1.537-1.043 2.357-0.272 0.821-0.474 1.65-0.606 2.487-0.132 0.837-0.206 1.629-0.223 2.376v0c-0.003 0.127-0.006 0.253-0.008 0.379-0.003 0.133 0.001 0.263 0.011 0.391zM151.262 16.896v0c-0.026 1.146-0.235 2.165-0.629 3.057-0.387 0.892-0.907 1.667-1.562 2.326-0.655 0.666-1.408 1.226-2.258 1.68-0.85 0.448-1.755 0.811-2.715 1.089-0.96 0.279-1.948 0.47-2.964 0.574-1.016 0.104-2 0.145-2.953 0.124v0c-1.206-0.027-2.398-0.137-3.574-0.329-1.183-0.193-2.343-0.489-3.481-0.888v0c0.156 1.07 0.417 2.09 0.782 3.058 0.365 0.968 0.863 1.82 1.493 2.554 0.63 0.734 1.414 1.322 2.352 1.763 0.937 0.441 2.052 0.676 3.345 0.705v0c0.86 0.019 1.679-0.093 2.458-0.336 0.779-0.236 1.497-0.583 2.154-1.042 0.657-0.452 1.239-0.996 1.746-1.631 0.508-0.635 0.924-1.346 1.248-2.133v0l3.51 1.389c-0.562 1.268-1.316 2.355-2.263 3.26-0.947 0.912-2.014 1.659-3.201 2.239-1.186 0.574-2.443 0.992-3.769 1.256-1.32 0.264-2.626 0.381-3.919 0.353v0c-2.133-0.048-4.098-0.452-5.894-1.212-1.797-0.76-3.334-1.802-4.612-3.124-1.277-1.322-2.269-2.888-2.975-4.697-0.706-1.81-1.036-3.781-0.989-5.914v0c0.048-2.139 0.465-4.097 1.252-5.873 0.787-1.776 1.847-3.296 3.183-4.56 1.335-1.264 2.917-2.235 4.746-2.915 1.829-0.679 3.81-0.995 5.942-0.948v0c1.033 0.023 2.088 0.12 3.165 0.291 1.083 0.171 2.131 0.424 3.144 0.76 1.006 0.336 1.957 0.767 2.851 1.294 0.895 0.52 1.671 1.154 2.328 1.903 0.65 0.748 1.164 1.613 1.543 2.595 0.372 0.975 0.544 2.086 0.516 3.332zM164.08 3.002l0.68 32.393-8.198 0.172-0.859-40.901 3.15-0.066zM189.647 5.632l5.656-0.402-8.408 25.3c-0.964 2.889-2.06 5.757-3.288 8.605-1.234 2.855-2.592 5.608-4.074 8.259v0l-3.33-1.708c0.354-0.76 0.769-1.635 1.247-2.625 0.484-0.99 0.956-2.013 1.416-3.068 0.46-1.049 0.881-2.084 1.263-3.107 0.381-1.03 0.663-1.962 0.844-2.797v0l-14.188-26.832 8.179-0.581 9.642 18.302zM208.869 6.844l2.981 24.579-8.16 0.99-2.981-24.58-5.063 0.614-0.391-3.226 5.063-0.614-1.241-10.225 8.161-0.99 1.24 10.225 8.428-1.022 0.391 3.226zM227.688-5.929v0c0.094 0.606 0.067 1.197-0.08 1.773-0.153 0.583-0.396 1.103-0.731 1.56-0.34 0.464-0.762 0.853-1.267 1.167-0.511 0.315-1.07 0.519-1.676 0.613v0c-0.606 0.094-1.194 0.066-1.763-0.082-0.569-0.148-1.086-0.392-1.55-0.732-0.463-0.333-0.852-0.755-1.167-1.267-0.314-0.505-0.518-1.06-0.611-1.666v0c-0.095-0.613-0.068-1.204 0.08-1.773 0.148-0.569 0.392-1.086 0.732-1.55 0.341-0.457 0.76-0.843 1.259-1.155 0.497-0.32 1.049-0.526 1.654-0.62v0c0.606-0.094 1.201-0.064 1.785 0.089 0.576 0.147 1.095 0.387 1.558 0.72 0.457 0.341 0.846 0.76 1.166 1.257 0.313 0.498 0.517 1.053 0.611 1.666zM228.359 0.838l4.27 27.652-8.124 1.255-4.27-27.652zM261.148 1.252v0l-3.189 2.08c-0.91-1.624-2.11-2.77-3.601-3.439-1.492-0.675-3.149-0.826-4.971-0.454v0c-0.98 0.2-1.82 0.535-2.52 1.005-0.708 0.464-1.298 1.024-1.77 1.678-0.464 0.66-0.826 1.387-1.085 2.182-0.26 0.795-0.434 1.623-0.524 2.485-0.083 0.861-0.092 1.733-0.026 2.618 0.065 0.885 0.18 1.732 0.346 2.542v0c0.177 0.869 0.403 1.738 0.675 2.608 0.278 0.862 0.615 1.678 1.01 2.447 0.395 0.77 0.855 1.469 1.378 2.097 0.523 0.628 1.128 1.144 1.816 1.547 0.682 0.405 1.455 0.676 2.32 0.813 0.858 0.138 1.81 0.1 2.855-0.114v0c0.843-0.172 1.617-0.463 2.322-0.873 0.714-0.404 1.34-0.903 1.879-1.496 0.54-0.587 0.991-1.247 1.351-1.98 0.36-0.734 0.605-1.518 0.733-2.355v0l3.751 0.571c-0.266 1.361-0.738 2.583-1.415 3.668-0.675 1.091-1.498 2.044-2.467 2.861-0.977 0.812-2.06 1.489-3.249 2.032-1.195 0.544-2.433 0.946-3.714 1.207v0c-2.077 0.424-4.076 0.465-5.997 0.123-1.914-0.344-3.648-1.021-5.201-2.03-1.547-1.011-2.865-2.317-3.954-3.918-1.089-1.601-1.847-3.447-2.274-5.537v0c-0.431-2.11-0.463-4.117-0.098-6.022 0.36-1.904 1.053-3.621 2.081-5.151 1.021-1.529 2.349-2.824 3.983-3.886 1.627-1.06 3.496-1.806 5.606-2.237v0c1.326-0.271 2.653-0.389 3.98-0.354 1.327 0.035 2.595 0.246 3.803 0.632 1.216 0.391 2.351 0.966 3.404 1.724 1.053 0.758 1.974 1.733 2.762 2.926zM291.832 5.583v0c0.316 1.185 0.427 2.287 0.333 3.306-0.096 1.012-0.35 1.936-0.762 2.77-0.417 0.843-0.97 1.601-1.659 2.274-0.688 0.68-1.459 1.283-2.313 1.808-0.852 0.531-1.77 0.993-2.755 1.387-0.983 0.4-1.974 0.734-2.973 1v0c-1.34 0.357-2.548 0.587-3.625 0.688-1.083 0.103-2.143 0.089-3.178-0.042-1.042-0.129-2.108-0.376-3.199-0.741-1.091-0.364-2.322-0.829-3.695-1.395v0l3.611-5.01c0.632 0.687 1.382 1.263 2.251 1.728 0.868 0.459 1.738 0.823 2.61 1.094 0.879 0.269 1.702 0.432 2.47 0.49 0.769 0.064 1.373 0.037 1.811-0.079v0c0.361-0.096 0.764-0.214 1.21-0.354 0.444-0.146 0.892-0.317 1.343-0.514 0.451-0.196 0.884-0.425 1.296-0.687 0.415-0.256 0.767-0.553 1.056-0.892 0.289-0.339 0.488-0.72 0.596-1.142 0.115-0.424 0.103-0.893-0.035-1.409v0c-0.141-0.528-0.4-0.956-0.777-1.283-0.384-0.325-0.834-0.578-1.351-0.758-0.517-0.179-1.082-0.294-1.696-0.344-0.615-0.057-1.23-0.086-1.845-0.087-0.608-0.003-1.196 0.005-1.763 0.025-0.559 0.025-1.05 0.035-1.472 0.03v0c-0.768-0.009-1.58-0.013-2.435-0.012-0.855 0.001-1.709-0.03-2.561-0.093-0.853-0.069-1.687-0.195-2.502-0.378-0.808-0.185-1.552-0.466-2.232-0.843-0.676-0.386-1.269-0.89-1.78-1.512-0.511-0.623-0.894-1.411-1.149-2.364v0c-0.467-1.752-0.511-3.31-0.129-4.675 0.381-1.364 1.047-2.553 1.998-3.565 0.949-1.019 2.112-1.871 3.49-2.556 1.37-0.683 2.806-1.225 4.306-1.625v0c1.031-0.275 2.144-0.458 3.341-0.55 1.197-0.092 2.391-0.076 3.584 0.048 1.186 0.125 2.325 0.36 3.416 0.703 1.1 0.348 2.064 0.819 2.892 1.412v0l-3.605 5.029c-0.591-0.843-1.253-1.529-1.988-2.057-0.733-0.522-1.482-0.912-2.247-1.17-0.764-0.252-1.512-0.39-2.243-0.416-0.736-0.018-1.391 0.05-1.964 0.203v0c-0.567 0.151-1.195 0.343-1.886 0.576-0.69 0.232-1.315 0.541-1.875 0.924-0.553 0.382-0.987 0.853-1.299 1.413-0.313 0.56-0.365 1.232-0.155 2.018v0c0.15 0.56 0.406 1.006 0.77 1.337 0.364 0.331 0.797 0.581 1.298 0.751 0.496 0.178 1.041 0.295 1.635 0.35 0.586 0.051 1.182 0.074 1.789 0.071 0.6-0.001 1.179-0.018 1.736-0.049 0.564-0.033 1.071-0.044 1.523-0.034v0c0.776 0.014 1.596 0.019 2.457 0.017 0.86-0.009 1.717 0.021 2.571 0.091 0.852 0.063 1.69 0.18 2.516 0.353 0.826 0.173 1.584 0.454 2.274 0.843 0.688 0.382 1.288 0.884 1.799 1.507 0.519 0.627 0.908 1.424 1.166 2.39z" opacity="1" transform="matrix(1,0,0,1,0,0)" fill="#ffffff" class="wordmark-text-0" data-fill-palette-color="primary" id="text-0"></path></svg></g></svg></g><g transform="matrix(1,0,0,1,57.4368,58.023455125021215)"><svg viewBox="0 0 77.1264 3.8514911495116455" height="3.8514911495116455" width="77.1264"><g transform="matrix(1,0,0,1,0,0)"><svg width="77.1264" viewBox="1.49 -38.01 974.76 48.68" height="3.8514911495116455" data-palette-color="#c53683"><path d="M13.48-10.72L20.51-35.55 23.97-35.55 21.97-25.95 14.4 0 10.96 0 13.48-10.72ZM6.23-35.55L11.82-11.18 13.48 0 10.08 0 1.49-35.55 6.23-35.55ZM33.06-11.21L38.53-35.55 43.29-35.55 34.69 0 31.3 0 33.06-11.21ZM24.49-35.55L31.32-10.72 33.81 0 30.37 0 23.07-25.95 21.09-35.55 24.49-35.55ZM52.34-37.5L52.34 0 47.78 0 47.78-37.5 52.34-37.5ZM51.27-14.23L49.36-14.31Q49.41-17.92 50.75-20.76 52.1-23.61 54.5-25.26 56.91-26.9 60.1-26.9L60.1-26.9Q62.72-26.9 64.61-25.94 66.5-24.98 67.54-22.88 68.58-20.78 68.58-17.31L68.58-17.31 68.58 0 64.01 0 64.01-17.36Q64.01-19.43 63.41-20.7 62.81-21.97 61.64-22.55 60.47-23.12 58.76-23.12L58.76-23.12Q57.08-23.12 55.71-22.41 54.34-21.7 53.34-20.46 52.34-19.21 51.8-17.61 51.27-16.02 51.27-14.23L51.27-14.23ZM86.3 0.49L86.3 0.49Q82.61 0.49 79.89-1.16 77.17-2.81 75.67-5.69 74.16-8.57 74.16-12.28L74.16-12.28 74.16-13.33Q74.16-17.63 75.81-20.67 77.46-23.71 80.11-25.31 82.76-26.9 85.71-26.9L85.71-26.9Q89.52-26.9 91.93-25.21 94.33-23.51 95.47-20.59 96.6-17.68 96.6-13.99L96.6-13.99 96.6-11.96 76.87-11.96 76.87-15.63 92.04-15.63 92.04-15.97Q91.94-17.72 91.33-19.4 90.72-21.07 89.37-22.16 88.03-23.24 85.71-23.24L85.71-23.24Q83.66-23.24 82.09-22.08 80.51-20.92 79.62-18.71 78.73-16.5 78.73-13.33L78.73-13.33 78.73-12.28Q78.73-9.77 79.66-7.7 80.59-5.64 82.34-4.41 84.1-3.17 86.54-3.17L86.54-3.17Q88.94-3.17 90.6-4.15 92.26-5.13 93.5-6.76L93.5-6.76 96.26-4.61Q94.99-2.66 92.61-1.09 90.23 0.49 86.3 0.49ZM106.41-22.27L106.41 0 101.85 0 101.85-26.42 106.29-26.42 106.41-22.27ZM114.64-26.56L114.64-22.39Q114.06-22.51 113.55-22.55 113.05-22.58 112.42-22.58L112.42-22.58Q110.34-22.58 108.92-21.73 107.49-20.87 106.71-19.37 105.93-17.87 105.73-15.94L105.73-15.94 104.44-15.21Q104.44-18.41 105.29-21.06 106.14-23.71 107.96-25.31 109.78-26.9 112.64-26.9L112.64-26.9Q113.1-26.9 113.75-26.79 114.4-26.68 114.64-26.56L114.64-26.56ZM129.78 0.49L129.78 0.49Q126.09 0.49 123.37-1.16 120.64-2.81 119.14-5.69 117.64-8.57 117.64-12.28L117.64-12.28 117.64-13.33Q117.64-17.63 119.29-20.67 120.94-23.71 123.59-25.31 126.24-26.9 129.19-26.9L129.19-26.9Q133-26.9 135.4-25.21 137.81-23.51 138.94-20.59 140.08-17.68 140.08-13.99L140.08-13.99 140.08-11.96 120.35-11.96 120.35-15.63 135.51-15.63 135.51-15.97Q135.41-17.72 134.8-19.4 134.19-21.07 132.85-22.16 131.51-23.24 129.19-23.24L129.19-23.24Q127.14-23.24 125.56-22.08 123.99-20.92 123.1-18.71 122.21-16.5 122.21-13.33L122.21-13.33 122.21-12.28Q122.21-9.77 123.13-7.7 124.06-5.64 125.82-4.41 127.58-3.17 130.02-3.17L130.02-3.17Q132.41-3.17 134.07-4.15 135.73-5.13 136.98-6.76L136.98-6.76 139.74-4.61Q138.47-2.66 136.09-1.09 133.71 0.49 129.78 0.49ZM181.63-20.26L181.63-16.46 162.44-16.46 162.44-20.26 181.63-20.26ZM163.17-35.55L163.17 0 158.43 0 158.43-35.55 163.17-35.55ZM185.78-35.55L185.78 0 181.04 0 181.04-35.55 185.78-35.55ZM192.22-12.92L192.22-13.48Q192.22-17.31 193.68-20.34 195.15-23.36 197.83-25.13 200.52-26.9 204.21-26.9L204.21-26.9Q207.94-26.9 210.65-25.13 213.36-23.36 214.81-20.34 216.27-17.31 216.27-13.48L216.27-13.48 216.27-12.92Q216.27-9.11 214.81-6.07 213.36-3.03 210.66-1.27 207.97 0.49 204.25 0.49L204.25 0.49Q200.54 0.49 197.85-1.27 195.15-3.03 193.68-6.07 192.22-9.11 192.22-12.92L192.22-12.92ZM196.78-13.48L196.78-12.92Q196.78-10.3 197.61-8.08 198.44-5.86 200.09-4.52 201.74-3.17 204.25-3.17L204.25-3.17Q206.75-3.17 208.39-4.52 210.04-5.86 210.87-8.08 211.7-10.3 211.7-12.92L211.7-12.92 211.7-13.48Q211.7-16.09 210.87-18.31 210.04-20.53 208.38-21.89 206.72-23.24 204.21-23.24L204.21-23.24Q201.74-23.24 200.08-21.89 198.42-20.53 197.6-18.31 196.78-16.09 196.78-13.48L196.78-13.48ZM226.47-21.17L226.47 0 221.9 0 221.9-26.42 226.23-26.42 226.47-21.17ZM225.54-14.23L223.42-14.31Q223.44-17.92 224.65-20.76 225.86-23.61 228.24-25.26 230.62-26.9 234.16-26.9L234.16-26.9Q237.87-26.9 240.29-24.73 242.7-22.56 242.7-17.6L242.7-17.6 242.7 0 238.14 0 238.14-17.38Q238.14-19.46 237.44-20.72 236.75-21.97 235.48-22.55 234.21-23.12 232.5-23.12L232.5-23.12Q230.52-23.12 229.19-22.41 227.86-21.7 227.06-20.46 226.25-19.21 225.9-17.61 225.54-16.02 225.54-14.23L225.54-14.23ZM242.66-16.72L239.6-15.8Q239.63-18.68 240.84-21.22 242.05-23.75 244.39-25.33 246.73-26.9 250.1-26.9L250.1-26.9Q252.93-26.9 254.91-25.9 256.89-24.9 257.91-22.8 258.94-20.7 258.94-17.36L258.94-17.36 258.94 0 254.37 0 254.37-17.41Q254.37-19.63 253.68-20.87 252.98-22.12 251.73-22.62 250.47-23.12 248.76-23.12L248.76-23.12Q247.27-23.12 246.13-22.61 245-22.09 244.23-21.2 243.46-20.31 243.06-19.17 242.66-18.02 242.66-16.72L242.66-16.72ZM276.74 0.49L276.74 0.49Q273.05 0.49 270.33-1.16 267.6-2.81 266.1-5.69 264.6-8.57 264.6-12.28L264.6-12.28 264.6-13.33Q264.6-17.63 266.25-20.67 267.9-23.71 270.55-25.31 273.2-26.9 276.15-26.9L276.15-26.9Q279.96-26.9 282.36-25.21 284.77-23.51 285.9-20.59 287.04-17.68 287.04-13.99L287.04-13.99 287.04-11.96 267.31-11.96 267.31-15.63 282.47-15.63 282.47-15.97Q282.37-17.72 281.76-19.4 281.15-21.07 279.81-22.16 278.47-23.24 276.15-23.24L276.15-23.24Q274.1-23.24 272.52-22.08 270.95-20.92 270.06-18.71 269.17-16.5 269.17-13.33L269.17-13.33 269.17-12.28Q269.17-9.77 270.09-7.7 271.02-5.64 272.78-4.41 274.54-3.17 276.98-3.17L276.98-3.17Q279.37-3.17 281.03-4.15 282.69-5.13 283.94-6.76L283.94-6.76 286.7-4.61Q285.43-2.66 283.05-1.09 280.67 0.49 276.74 0.49ZM306.88-35.55L311.5-35.55 323.09-6.49 334.69-35.55 339.3-35.55 324.87 0 321.29 0 306.88-35.55ZM305.39-35.55L309.45-35.55 310.1-13.89 310.1 0 305.39 0 305.39-35.55ZM336.74-35.55L340.79-35.55 340.79 0 336.08 0 336.08-13.89 336.74-35.55ZM363.93-4.52L363.93-18.12Q363.93-20.48 362.53-21.89 361.13-23.29 358.39-23.29L358.39-23.29Q356.71-23.29 355.43-22.71 354.14-22.12 353.44-21.17 352.73-20.21 352.73-19.09L352.73-19.09 348.16-19.09Q348.16-21 349.46-22.79 350.75-24.58 353.11-25.74 355.46-26.9 358.66-26.9L358.66-26.9Q361.54-26.9 363.76-25.93 365.99-24.95 367.24-22.99 368.5-21.02 368.5-18.07L368.5-18.07 368.5-5.76Q368.5-4.44 368.73-2.95 368.96-1.46 369.43-0.39L369.43-0.39 369.43 0 364.67 0Q364.33-0.78 364.13-2.09 363.93-3.39 363.93-4.52L363.93-4.52ZM364.72-16.02L364.76-12.84 360.22-12.84Q356.37-12.84 354.27-11.62 352.17-10.4 352.17-7.96L352.17-7.96Q352.17-6.05 353.45-4.74 354.73-3.42 357.2-3.42L357.2-3.42Q359.27-3.42 360.86-4.3 362.45-5.18 363.37-6.47 364.3-7.76 364.37-8.96L364.37-8.96 366.33-6.79Q366.16-5.76 365.4-4.52 364.64-3.27 363.39-2.14 362.13-1 360.41-0.26 358.69 0.49 356.54 0.49L356.54 0.49Q353.85 0.49 351.84-0.55 349.82-1.59 348.71-3.37 347.6-5.15 347.6-7.32L347.6-7.32Q347.6-11.6 350.82-13.81 354.05-16.02 359.49-16.02L359.49-16.02 364.72-16.02ZM380.14-20.78L380.14 0 375.58 0 375.58-26.42 379.9-26.42 380.14-20.78ZM379.07-14.23L377.16-14.31Q377.21-17.92 378.56-20.76 379.9-23.61 382.3-25.26 384.71-26.9 387.91-26.9L387.91-26.9Q390.52-26.9 392.41-25.94 394.3-24.98 395.34-22.88 396.38-20.78 396.38-17.31L396.38-17.31 396.38 0 391.81 0 391.81-17.36Q391.81-19.43 391.22-20.7 390.62-21.97 389.45-22.55 388.27-23.12 386.56-23.12L386.56-23.12Q384.88-23.12 383.51-22.41 382.15-21.7 381.14-20.46 380.14-19.21 379.61-17.61 379.07-16.02 379.07-14.23L379.07-14.23ZM418.76-4.52L418.76-18.12Q418.76-20.48 417.36-21.89 415.96-23.29 413.22-23.29L413.22-23.29Q411.54-23.29 410.26-22.71 408.97-22.12 408.27-21.17 407.56-20.21 407.56-19.09L407.56-19.09 402.99-19.09Q402.99-21 404.29-22.79 405.58-24.58 407.94-25.74 410.29-26.9 413.49-26.9L413.49-26.9Q416.37-26.9 418.59-25.93 420.81-24.95 422.07-22.99 423.33-21.02 423.33-18.07L423.33-18.07 423.33-5.76Q423.33-4.44 423.56-2.95 423.79-1.46 424.26-0.39L424.26-0.39 424.26 0 419.5 0Q419.15-0.78 418.96-2.09 418.76-3.39 418.76-4.52L418.76-4.52ZM419.55-16.02L419.59-12.84 415.05-12.84Q411.2-12.84 409.1-11.62 407-10.4 407-7.96L407-7.96Q407-6.05 408.28-4.74 409.56-3.42 412.03-3.42L412.03-3.42Q414.1-3.42 415.69-4.3 417.27-5.18 418.2-6.47 419.13-7.76 419.2-8.96L419.2-8.96 421.16-6.79Q420.99-5.76 420.23-4.52 419.47-3.27 418.21-2.14 416.96-1 415.24-0.26 413.51 0.49 411.37 0.49L411.37 0.49Q408.68 0.49 406.67-0.55 404.65-1.59 403.54-3.37 402.43-5.15 402.43-7.32L402.43-7.32Q402.43-11.6 405.65-13.81 408.88-16.02 414.32-16.02L414.32-16.02 419.55-16.02ZM447.52-26.42L451.67-26.42 451.67-0.56Q451.67 2.93 450.24 5.4 448.82 7.86 446.29 9.14 443.76 10.42 440.47 10.42L440.47 10.42Q439.1 10.42 437.25 10 435.41 9.57 433.64 8.56 431.87 7.54 430.68 5.83L430.68 5.83 433.04 3.17Q434.7 5.18 436.52 5.97 438.34 6.76 440.12 6.76L440.12 6.76Q443.32 6.76 445.21 4.94 447.11 3.13 447.11-0.34L447.11-0.34 447.11-20.61 447.52-26.42ZM429.33-12.92L429.33-13.43Q429.33-17.46 430.6-20.5 431.87-23.54 434.22-25.22 436.56-26.9 439.78-26.9L439.78-26.9Q442.27-26.9 444.14-26.04 446.01-25.17 447.31-23.54 448.62-21.9 449.39-19.58 450.16-17.26 450.45-14.36L450.45-14.36 450.45-11.99Q450.08-8.15 448.83-5.36 447.57-2.56 445.32-1.04 443.08 0.49 439.73 0.49L439.73 0.49Q436.56 0.49 434.23-1.26 431.9-3 430.61-6.03 429.33-9.06 429.33-12.92L429.33-12.92ZM433.9-13.43L433.9-12.92Q433.9-10.28 434.62-8.11 435.34-5.93 436.88-4.63 438.41-3.32 440.86-3.32L440.86-3.32Q443.1-3.32 444.54-4.27 445.98-5.22 446.86-6.79 447.74-8.35 448.23-10.18L448.23-10.18 448.23-16.11Q447.94-17.46 447.4-18.71 446.86-19.97 445.98-20.96 445.1-21.95 443.85-22.53 442.59-23.12 440.9-23.12L440.9-23.12Q438.44-23.12 436.89-21.8 435.34-20.48 434.62-18.27 433.9-16.06 433.9-13.43L433.9-13.43ZM469.47 0.49L469.47 0.49Q465.78 0.49 463.06-1.16 460.34-2.81 458.83-5.69 457.33-8.57 457.33-12.28L457.33-12.28 457.33-13.33Q457.33-17.63 458.98-20.67 460.63-23.71 463.28-25.31 465.93-26.9 468.88-26.9L468.88-26.9Q472.69-26.9 475.09-25.21 477.5-23.51 478.63-20.59 479.77-17.68 479.77-13.99L479.77-13.99 479.77-11.96 460.04-11.96 460.04-15.63 475.2-15.63 475.2-15.97Q475.11-17.72 474.5-19.4 473.89-21.07 472.54-22.16 471.2-23.24 468.88-23.24L468.88-23.24Q466.83-23.24 465.26-22.08 463.68-20.92 462.79-18.71 461.9-16.5 461.9-13.33L461.9-13.33 461.9-12.28Q461.9-9.77 462.83-7.7 463.75-5.64 465.51-4.41 467.27-3.17 469.71-3.17L469.71-3.17Q472.1-3.17 473.76-4.15 475.42-5.13 476.67-6.76L476.67-6.76 479.43-4.61Q478.16-2.66 475.78-1.09 473.4 0.49 469.47 0.49ZM489.56-21.17L489.56 0 484.99 0 484.99-26.42 489.31-26.42 489.56-21.17ZM488.63-14.23L486.51-14.31Q486.53-17.92 487.74-20.76 488.95-23.61 491.33-25.26 493.71-26.9 497.25-26.9L497.25-26.9Q500.96-26.9 503.38-24.73 505.79-22.56 505.79-17.6L505.79-17.6 505.79 0 501.23 0 501.23-17.38Q501.23-19.46 500.53-20.72 499.84-21.97 498.57-22.55 497.3-23.12 495.59-23.12L495.59-23.12Q493.61-23.12 492.28-22.41 490.95-21.7 490.14-20.46 489.34-19.21 488.98-17.61 488.63-16.02 488.63-14.23L488.63-14.23ZM505.74-16.72L502.69-15.8Q502.72-18.68 503.92-21.22 505.13-23.75 507.48-25.33 509.82-26.9 513.19-26.9L513.19-26.9Q516.02-26.9 518-25.9 519.98-24.9 521-22.8 522.03-20.7 522.03-17.36L522.03-17.36 522.03 0 517.46 0 517.46-17.41Q517.46-19.63 516.77-20.87 516.07-22.12 514.81-22.62 513.56-23.12 511.85-23.12L511.85-23.12Q510.36-23.12 509.22-22.61 508.09-22.09 507.32-21.2 506.55-20.31 506.15-19.17 505.74-18.02 505.74-16.72L505.74-16.72ZM539.82 0.49L539.82 0.49Q536.14 0.49 533.41-1.16 530.69-2.81 529.19-5.69 527.69-8.57 527.69-12.28L527.69-12.28 527.69-13.33Q527.69-17.63 529.34-20.67 530.99-23.71 533.63-25.31 536.28-26.9 539.24-26.9L539.24-26.9Q543.05-26.9 545.45-25.21 547.86-23.51 548.99-20.59 550.13-17.68 550.13-13.99L550.13-13.99 550.13-11.96 530.4-11.96 530.4-15.63 545.56-15.63 545.56-15.97Q545.46-17.72 544.85-19.4 544.24-21.07 542.9-22.16 541.56-23.24 539.24-23.24L539.24-23.24Q537.19-23.24 535.61-22.08 534.04-20.92 533.15-18.71 532.25-16.5 532.25-13.33L532.25-13.33 532.25-12.28Q532.25-9.77 533.18-7.7 534.11-5.64 535.87-4.41 537.63-3.17 540.07-3.17L540.07-3.17Q542.46-3.17 544.12-4.15 545.78-5.13 547.03-6.76L547.03-6.76 549.78-4.61Q548.51-2.66 546.13-1.09 543.75 0.49 539.82 0.49ZM559.94-20.78L559.94 0 555.37 0 555.37-26.42 559.69-26.42 559.94-20.78ZM558.86-14.23L556.96-14.31Q557.01-17.92 558.35-20.76 559.69-23.61 562.1-25.26 564.5-26.9 567.7-26.9L567.7-26.9Q570.31-26.9 572.21-25.94 574.1-24.98 575.14-22.88 576.17-20.78 576.17-17.31L576.17-17.31 576.17 0 571.61 0 571.61-17.36Q571.61-19.43 571.01-20.7 570.41-21.97 569.24-22.55 568.07-23.12 566.36-23.12L566.36-23.12Q564.67-23.12 563.31-22.41 561.94-21.7 560.94-20.46 559.94-19.21 559.4-17.61 558.86-16.02 558.86-14.23L558.86-14.23ZM594.09-26.42L594.09-22.97 579.78-22.97 579.78-26.42 594.09-26.42ZM584.59-32.84L589.16-32.84 589.16-6.54Q589.16-5.18 589.57-4.49 589.99-3.81 590.65-3.59 591.31-3.37 592.06-3.37L592.06-3.37Q592.63-3.37 593.25-3.47 593.87-3.56 594.16-3.64L594.16-3.64 594.19 0Q593.65 0.17 592.78 0.33 591.92 0.49 590.7 0.49L590.7 0.49Q589.04 0.49 587.65-0.17 586.25-0.83 585.42-2.38 584.59-3.93 584.59-6.57L584.59-6.57 584.59-32.84ZM613.93-35.55L618.55-35.55 630.15-6.49 641.74-35.55 646.36-35.55 631.93 0 628.34 0 613.93-35.55ZM612.44-35.55L616.5-35.55 617.16-13.89 617.16 0 612.44 0 612.44-35.55ZM643.79-35.55L647.85-35.55 647.85 0 643.13 0 643.13-13.89 643.79-35.55ZM666.4 0.49L666.4 0.49Q662.71 0.49 659.99-1.16 657.27-2.81 655.77-5.69 654.26-8.57 654.26-12.28L654.26-12.28 654.26-13.33Q654.26-17.63 655.91-20.67 657.56-23.71 660.21-25.31 662.86-26.9 665.81-26.9L665.81-26.9Q669.62-26.9 672.03-25.21 674.43-23.51 675.57-20.59 676.7-17.68 676.7-13.99L676.7-13.99 676.7-11.96 656.97-11.96 656.97-15.63 672.13-15.63 672.13-15.97Q672.04-17.72 671.43-19.4 670.82-21.07 669.47-22.16 668.13-23.24 665.81-23.24L665.81-23.24Q663.76-23.24 662.19-22.08 660.61-20.92 659.72-18.71 658.83-16.5 658.83-13.33L658.83-13.33 658.83-12.28Q658.83-9.77 659.76-7.7 660.68-5.64 662.44-4.41 664.2-3.17 666.64-3.17L666.64-3.17Q669.03-3.17 670.69-4.15 672.35-5.13 673.6-6.76L673.6-6.76 676.36-4.61Q675.09-2.66 672.71-1.09 670.33 0.49 666.4 0.49ZM692.93 0.49L692.93 0.49Q689.25 0.49 686.52-1.16 683.8-2.81 682.3-5.69 680.8-8.57 680.8-12.28L680.8-12.28 680.8-13.33Q680.8-17.63 682.45-20.67 684.1-23.71 686.74-25.31 689.39-26.9 692.35-26.9L692.35-26.9Q696.16-26.9 698.56-25.21 700.97-23.51 702.1-20.59 703.24-17.68 703.24-13.99L703.24-13.99 703.24-11.96 683.51-11.96 683.51-15.63 698.67-15.63 698.67-15.97Q698.57-17.72 697.96-19.4 697.35-21.07 696.01-22.16 694.67-23.24 692.35-23.24L692.35-23.24Q690.3-23.24 688.72-22.08 687.15-20.92 686.26-18.71 685.36-16.5 685.36-13.33L685.36-13.33 685.36-12.28Q685.36-9.77 686.29-7.7 687.22-5.64 688.98-4.41 690.74-3.17 693.18-3.17L693.18-3.17Q695.57-3.17 697.23-4.15 698.89-5.13 700.14-6.76L700.14-6.76 702.89-4.61Q701.62-2.66 699.24-1.09 696.86 0.49 692.93 0.49ZM719.59-26.42L719.59-22.97 705.28-22.97 705.28-26.42 719.59-26.42ZM710.09-32.84L714.66-32.84 714.66-6.54Q714.66-5.18 715.07-4.49 715.49-3.81 716.15-3.59 716.81-3.37 717.56-3.37L717.56-3.37Q718.13-3.37 718.75-3.47 719.37-3.56 719.66-3.64L719.66-3.64 719.69 0Q719.15 0.17 718.28 0.33 717.42 0.49 716.2 0.49L716.2 0.49Q714.54 0.49 713.15-0.17 711.75-0.83 710.92-2.38 710.09-3.93 710.09-6.57L710.09-6.57 710.09-32.84ZM740.22-7.01L740.22-7.01Q740.22-7.98 739.79-8.83 739.36-9.67 738.07-10.36 736.78-11.06 734.16-11.6L734.16-11.6Q731.23-12.21 729.1-13.15 726.96-14.09 725.8-15.55 724.64-17.02 724.64-19.19L724.64-19.19Q724.64-21.29 725.85-23.03 727.06-24.78 729.27-25.84 731.48-26.9 734.43-26.9L734.43-26.9Q737.61-26.9 739.86-25.79 742.12-24.68 743.32-22.81 744.52-20.95 744.52-18.68L744.52-18.68 739.95-18.68Q739.95-20.31 738.52-21.78 737.09-23.24 734.43-23.24L734.43-23.24Q732.58-23.24 731.42-22.67 730.26-22.09 729.73-21.2 729.21-20.31 729.21-19.34L729.21-19.34Q729.21-18.36 729.7-17.64 730.18-16.92 731.49-16.36 732.8-15.8 735.29-15.23L735.29-15.23Q738.53-14.5 740.63-13.48 742.73-12.45 743.76-10.96 744.78-9.47 744.78-7.32L744.78-7.32Q744.78-5.03 743.51-3.26 742.24-1.49 739.95-0.5 737.65 0.49 734.55 0.49L734.55 0.49Q731.06 0.49 728.65-0.76 726.23-2 724.98-3.97 723.74-5.93 723.74-8.13L723.74-8.13 728.3-8.13Q728.43-6.27 729.39-5.19 730.35-4.1 731.76-3.64 733.16-3.17 734.55-3.17L734.55-3.17Q736.41-3.17 737.67-3.67 738.92-4.17 739.57-5.04 740.22-5.91 740.22-7.01ZM786.33-3.81L786.33 0 767.56 0 767.56-3.81 786.33-3.81ZM768.48-35.55L768.48 0 763.75 0 763.75-35.55 768.48-35.55ZM783.84-20.26L783.84-16.46 767.56-16.46 767.56-20.26 783.84-20.26ZM786.09-35.55L786.09-31.71 767.56-31.71 767.56-35.55 786.09-35.55ZM797.8 0L793.24 0 793.24-29.22Q793.24-33.47 795.57-35.74 797.9-38.01 801.95-38.01L801.95-38.01Q802.74-38.01 803.52-37.92 804.3-37.82 805.05-37.62L805.05-37.62 804.81-33.98Q804.3-34.08 803.65-34.13 803-34.18 802.37-34.18L802.37-34.18Q800.22-34.18 799.01-32.9 797.8-31.62 797.8-29.22L797.8-29.22 797.8 0ZM803.42-26.42L803.42-22.97 789.09-22.97 789.09-26.42 803.42-26.42ZM815.18 0L810.62 0 810.62-29.22Q810.62-33.47 812.95-35.74 815.28-38.01 819.33-38.01L819.33-38.01Q820.12-38.01 820.9-37.92 821.68-37.82 822.43-37.62L822.43-37.62 822.19-33.98Q821.68-34.08 821.03-34.13 820.38-34.18 819.75-34.18L819.75-34.18Q817.6-34.18 816.39-32.9 815.18-31.62 815.18-29.22L815.18-29.22 815.18 0ZM820.8-26.42L820.8-22.97 806.47-22.97 806.47-26.42 820.8-26.42ZM830.73-26.42L830.73 0 826.17 0 826.17-26.42 830.73-26.42ZM825.83-33.45L825.83-33.45Q825.83-34.52 826.5-35.28 827.17-36.04 828.49-36.04L828.49-36.04Q829.81-36.04 830.5-35.28 831.2-34.52 831.2-33.45L831.2-33.45Q831.2-32.4 830.5-31.65 829.81-30.91 828.49-30.91L828.49-30.91Q827.17-30.91 826.5-31.65 825.83-32.4 825.83-33.45ZM848.53-3.17L848.53-3.17Q850.14-3.17 851.51-3.85 852.87-4.52 853.75-5.69 854.63-6.86 854.75-8.35L854.75-8.35 859.08-8.35Q858.95-6.01 857.49-3.99 856.02-1.98 853.68-0.74 851.34 0.49 848.53 0.49L848.53 0.49Q844.55 0.49 841.94-1.33 839.32-3.15 838.04-6.15 836.76-9.16 836.76-12.7L836.76-12.7 836.76-13.72Q836.76-17.29 838.05-20.28 839.35-23.27 841.96-25.09 844.57-26.9 848.53-26.9L848.53-26.9Q851.63-26.9 853.96-25.65 856.29-24.39 857.62-22.23 858.95-20.07 859.08-17.33L859.08-17.33 854.75-17.33Q854.63-18.97 853.84-20.31 853.04-21.66 851.69-22.45 850.34-23.24 848.53-23.24L848.53-23.24Q845.77-23.24 844.19-21.83 842.62-20.41 841.97-18.23 841.33-16.04 841.33-13.72L841.33-13.72 841.33-12.7Q841.33-10.38 841.96-8.18 842.6-5.98 844.17-4.58 845.75-3.17 848.53-3.17ZM869.08-26.42L869.08 0 864.52 0 864.52-26.42 869.08-26.42ZM864.18-33.45L864.18-33.45Q864.18-34.52 864.85-35.28 865.52-36.04 866.84-36.04L866.84-36.04Q868.15-36.04 868.85-35.28 869.55-34.52 869.55-33.45L869.55-33.45Q869.55-32.4 868.85-31.65 868.15-30.91 866.84-30.91L866.84-30.91Q865.52-30.91 864.85-31.65 864.18-32.4 864.18-33.45ZM887.27 0.49L887.27 0.49Q883.58 0.49 880.86-1.16 878.14-2.81 876.64-5.69 875.13-8.57 875.13-12.28L875.13-12.28 875.13-13.33Q875.13-17.63 876.78-20.67 878.43-23.71 881.08-25.31 883.73-26.9 886.68-26.9L886.68-26.9Q890.49-26.9 892.9-25.21 895.3-23.51 896.44-20.59 897.57-17.68 897.57-13.99L897.57-13.99 897.57-11.96 877.84-11.96 877.84-15.63 893.01-15.63 893.01-15.97Q892.91-17.72 892.3-19.4 891.69-21.07 890.34-22.16 889-23.24 886.68-23.24L886.68-23.24Q884.63-23.24 883.06-22.08 881.48-20.92 880.59-18.71 879.7-16.5 879.7-13.33L879.7-13.33 879.7-12.28Q879.7-9.77 880.63-7.7 881.56-5.64 883.31-4.41 885.07-3.17 887.51-3.17L887.51-3.17Q889.91-3.17 891.57-4.15 893.23-5.13 894.47-6.76L894.47-6.76 897.23-4.61Q895.96-2.66 893.58-1.09 891.2 0.49 887.27 0.49ZM907.38-20.78L907.38 0 902.82 0 902.82-26.42 907.14-26.42 907.38-20.78ZM906.31-14.23L904.4-14.31Q904.45-17.92 905.8-20.76 907.14-23.61 909.54-25.26 911.95-26.9 915.15-26.9L915.15-26.9Q917.76-26.9 919.65-25.94 921.54-24.98 922.58-22.88 923.62-20.78 923.62-17.31L923.62-17.31 923.62 0 919.05 0 919.05-17.36Q919.05-19.43 918.45-20.7 917.86-21.97 916.68-22.55 915.51-23.12 913.8-23.12L913.8-23.12Q912.12-23.12 910.75-22.41 909.39-21.7 908.38-20.46 907.38-19.21 906.85-17.61 906.31-16.02 906.31-14.23L906.31-14.23ZM941.02-3.17L941.02-3.17Q942.63-3.17 944-3.85 945.37-4.52 946.25-5.69 947.13-6.86 947.25-8.35L947.25-8.35 951.57-8.35Q951.45-6.01 949.98-3.99 948.52-1.98 946.17-0.74 943.83 0.49 941.02 0.49L941.02 0.49Q937.04 0.49 934.43-1.33 931.82-3.15 930.54-6.15 929.26-9.16 929.26-12.7L929.26-12.7 929.26-13.72Q929.26-17.29 930.55-20.28 931.84-23.27 934.46-25.09 937.07-26.9 941.02-26.9L941.02-26.9Q944.12-26.9 946.46-25.65 948.79-24.39 950.12-22.23 951.45-20.07 951.57-17.33L951.57-17.33 947.25-17.33Q947.13-18.97 946.33-20.31 945.54-21.66 944.18-22.45 942.83-23.24 941.02-23.24L941.02-23.24Q938.26-23.24 936.69-21.83 935.12-20.41 934.47-18.23 933.82-16.04 933.82-13.72L933.82-13.72 933.82-12.7Q933.82-10.38 934.46-8.18 935.09-5.98 936.67-4.58 938.24-3.17 941.02-3.17ZM964.04-2.73L971.39-26.42 976.25-26.42 965.65 4.08Q965.29 5.05 964.69 6.19 964.09 7.32 963.18 8.35 962.26 9.38 960.94 10.02 959.62 10.67 957.82 10.67L957.82 10.67Q957.45 10.67 956.94 10.6 956.43 10.52 955.96 10.44 955.5 10.35 955.25 10.28L955.25 10.28 955.25 6.64Q955.45 6.67 955.88 6.71 956.3 6.76 956.47 6.76L956.47 6.76Q958.77 6.76 960.06 5.81 961.36 4.86 962.16 2.42L962.16 2.42 964.04-2.73ZM958.72-26.42L965.53-5.88 966.7-1.12 963.43 0.51 953.74-26.42 958.72-26.42Z" opacity="1" transform="matrix(1,0,0,1,0,0)" fill="#ffffff" class="slogan-text-1" data-fill-palette-color="secondary" id="text-1"></path></svg></g></svg></g></svg></g></svg></g><g transform="matrix(1,0,0,1,64.87771044086196,0)"><svg viewBox="0 0 62.24457911827608 61.87494627453286" height="61.87494627453286" width="62.24457911827608"><g><svg xmlns="http://www.w3.org/2000/svg" xmlns:xlink="http://www.w3.org/1999/xlink" version="1.1" x="0" y="0" viewBox="1.0659906987394445 1.2140588066063314 49.868018919887064 49.571882968671574" enable-background="new 0 0 52 52" xml:space="preserve" height="61.87494627453286" width="62.24457911827608" class="icon-icon-0" data-fill-palette-color="accent" id="icon-0"><g fill="#c53683" data-fill-palette-color="accent"><g fill="#c53683" data-fill-palette-color="accent"><path d="M5.501 24.501c2.246-0.012 4.493-0.024 6.739-0.036 1.123-0.006 2.246-0.012 3.369-0.019 3.024-0.016 2.047 3.272 2.057 5.021 0.011 2.063 1.25 18.099-1.172 18.381-2.365 0.275-4.921 0.037-7.303 0.055-1.217 0.009-2.435 0.018-3.652 0.028-2.578 0.019-1.848-4.734-1.85-5.992C3.685 40.176 2.786 25.05 4.533 24.916c1.597-0.123 1.609-2.624 0-2.5-1.828 0.141-3.246 1.035-3.33 3.105-0.221 5.457-0.025 10.957-0.014 16.418 0.004 2.05-0.783 6.491 1.576 7.873 3.047 1.785 8.536 0.575 11.904 0.55 2.67-0.02 5.071 0.031 5.545-2.976 0.795-5.043-0.011-10.852-0.038-15.965-0.012-2.369 1.14-7.282-1.517-8.837-3.287-1.925-9.513-0.602-13.158-0.583C3.889 22.01 3.889 24.51 5.501 24.501L5.501 24.501z" fill="#ffffff" data-fill-palette-color="accent"></path></g><g fill="#c53683" data-fill-palette-color="accent"><path d="M7.249 29.399c2.556 0 5.111 0 7.667 0 1.612 0 1.612-2.5 0-2.5-2.556 0-5.111 0-7.667 0C5.637 26.899 5.637 29.399 7.249 29.399L7.249 29.399z" fill="#ffffff" data-fill-palette-color="accent"></path></g><g fill="#c53683" data-fill-palette-color="accent"><path d="M7.332 33.316c2.444 0 4.889 0 7.334 0 1.612 0 1.612-2.5 0-2.5-2.444 0-4.889 0-7.334 0C5.72 30.816 5.72 33.316 7.332 33.316L7.332 33.316z" fill="#ffffff" data-fill-palette-color="accent"></path></g><g fill="#c53683" data-fill-palette-color="accent"><path d="M9.999 36.983c0 0.917 0 1.833 0 2.75 0 1.612 2.5 1.612 2.5 0 0-0.917 0-1.833 0-2.75C12.499 35.371 9.999 35.371 9.999 36.983L9.999 36.983z" fill="#ffffff" data-fill-palette-color="accent"></path></g><g fill="#c53683" data-fill-palette-color="accent"><path d="M9.749 43.983c0 0.194 0 0.389 0 0.583 0 1.612 2.5 1.612 2.5 0 0-0.194 0-0.389 0-0.583C12.249 42.371 9.749 42.371 9.749 43.983L9.749 43.983z" fill="#ffffff" data-fill-palette-color="accent"></path></g><g fill="#c53683" data-fill-palette-color="accent"><path d="M18.147 22.733c0.012-3.323 0.023-6.646 0.035-9.969 0.007-1.994 0.014-3.988 0.021-5.981 0.012-3.491 3.485-2.727 5.65-2.758 6.535-0.095 13.101-0.231 19.635-0.082 2.839-0.583 4.342 0.644 4.508 3.682 0.001 1.986 0.003 3.973 0.005 5.959 0.003 4.34 1.529 9.876-4.565 9.741-7.76-0.171-15.524 0.055-23.27 0.519-1.602 0.096-1.611 2.596 0 2.5 5.813-0.348 11.626-0.537 17.45-0.568 3.879-0.02 9.044 1.318 12.185-1.461 2.041-1.806 0.701-8.434 0.7-10.731-0.002-2.914 1.488-9.3-1.708-11.172C45.618 0.552 40.299 1.407 36.83 1.432 31.477 1.47 26.086 1.329 20.741 1.637c-2.73 0.158-4.23 0.999-4.926 3.583-0.609 2.266-0.125 5.214-0.133 7.544-0.012 3.323-0.023 6.646-0.035 9.969C15.642 24.346 18.142 24.345 18.147 22.733L18.147 22.733z" fill="#ffffff" data-fill-palette-color="accent"></path></g><g fill="#c53683" data-fill-palette-color="accent"><path d="M17.416 21.312c10.528-0.035 21.056-0.07 31.583-0.104 1.612-0.005 1.612-2.505 0-2.5-10.528 0.035-21.056 0.07-31.583 0.104C15.804 18.818 15.803 21.318 17.416 21.312L17.416 21.312z" fill="#ffffff" data-fill-palette-color="accent"></path></g><g fill="#c53683" data-fill-palette-color="accent"><path d="M25.416 32.316c5.25 0 10.5 0 15.75 0 1.612 0 1.612-2.5 0-2.5-5.25 0-10.5 0-15.75 0C23.803 29.816 23.803 32.316 25.416 32.316L25.416 32.316z" fill="#ffffff" data-fill-palette-color="accent"></path></g><g fill="#c53683" data-fill-palette-color="accent"><path d="M34.996 26.338c0.368 0.556 0.737 1.111 1.105 1.667 0.343 0.518 0.774 1.087 0.826 1.727 0.129 1.595 2.63 1.608 2.5 0-0.146-1.799-1.309-3.202-2.272-4.656C36.269 23.739 34.102 24.99 34.996 26.338L34.996 26.338z" fill="#ffffff" data-fill-palette-color="accent"></path></g><g fill="#c53683" data-fill-palette-color="accent"><path d="M29.002 25.219c-0.45 1.295-0.837 2.639-1.423 3.879-0.685 1.449 1.47 2.719 2.159 1.262 0.681-1.441 1.153-2.974 1.675-4.477C31.943 24.356 29.528 23.706 29.002 25.219L29.002 25.219z" fill="#ffffff" data-fill-palette-color="accent"></path></g></g></svg></g></svg></g><g></g></svg></g></svg></g></svg></g><defs></defs></svg><rect width="320" height="360" fill="none" stroke="none" visibility="hidden"></rect></g></svg></g></svg>